<?xml version="1.0" encoding="UTF-8"?>
<svg width="78px" height="72px" viewBox="0 0 78 72" version="1.1" xmlns="http://www.w3.org/2000/svg" xmlns:xlink="http://www.w3.org/1999/xlink">
    <!-- Generator: sketchtool 50.2 (55047) - http://www.bohemiancoding.com/sketch -->
    <title>32F70AB8-BA1F-4844-8D06-00CE20CBA5D5</title>
    <desc>Created with sketchtool.</desc>
    <defs></defs>
    <g id="Page-1" stroke="none" stroke-width="1" fill="none" fill-rule="evenodd">
        <g id="02_LandingPage_Agency" transform="translate(-1019.000000, -589.000000)">
            <g id="Content" transform="translate(113.000000, 102.000000)">
                <g id="Content_Block_4_Reporting" transform="translate(708.000000, 487.000000)">
                    <g id="Icon_Reporting" transform="translate(198.000000, 0.000000)">
                        <polygon id="Fill-1799" fill="#FFFFFF" points="2 71 77 71 77 2 2 2"></polygon>
                        <path d="M3.04390244,68.9495403 L74.9560976,68.9495403 L74.9560976,3.05045969 L3.04390244,3.05045969 L3.04390244,68.9495403 Z M0,72 L78,72 L78,0 L0,0 L0,72 Z" id="Fill-1800" fill="#5D9EE2"></path>
                        <polygon id="Fill-1801" fill="#FCE302" points="2 11 77 11 77 2 2 2"></polygon>
                        <path d="M3.04390244,8.90322581 L74.9560976,8.90322581 L74.9560976,3.09677419 L3.04390244,3.09677419 L3.04390244,8.90322581 Z M0,12 L78,12 L78,0 L0,0 L0,12 Z" id="Fill-1802" fill="#5D9EE2"></path>
                        <path d="M5,5 L8,5" id="Fill-1803" fill="#FFFFFF"></path>
                        <polygon id="Fill-1804" fill="#5D9EE2" points="5 8 8 8 8 5 5 5"></polygon>
                        <path d="M10,5 L13,5" id="Fill-1805" fill="#FFFFFF"></path>
                        <polygon id="Fill-1806" fill="#5D9EE2" points="11 8 14 8 14 5 11 5"></polygon>
                        <path d="M15,5 L18,5" id="Fill-1807" fill="#FFFFFF"></path>
                        <polygon id="Fill-1808" fill="#5D9EE2" points="16 8 19 8 19 5 16 5"></polygon>
                        <polygon id="Fill-1809" fill="#FCE302" points="8 64 15 64 15 54 8 54"></polygon>
                        <path d="M9.9739777,61.9567507 L14.0260223,61.9567507 L14.0260223,55.0432493 L9.9739777,55.0432493 L9.9739777,61.9567507 Z M7,65 L17,65 L17,52 L7,52 L7,65 Z" id="Fill-1810" fill="#FCE302"></path>
                        <polygon id="Fill-1811" fill="#FFFFFF" points="8 64 15 64 15 58 8 58"></polygon>
                        <path d="M9.9739777,62.8841959 L14.0260223,62.8841959 L14.0260223,60.1158041 L9.9739777,60.1158041 L9.9739777,62.8841959 Z M7,66 L17,66 L17,57 L7,57 L7,66 Z" id="Fill-1812" fill="#5D9EE2"></path>
                        <polygon id="Fill-1813" fill="#FCE302" points="22 64 29 64 29 45 22 45"></polygon>
                        <path d="M22.9739777,61.0257208 L27.0260223,61.0257208 L27.0260223,44.9742792 L22.9739777,44.9742792 L22.9739777,61.0257208 Z M20,64 L30,64 L30,42 L20,42 L20,64 Z" id="Fill-1814" fill="#FCE302"></path>
                        <polygon id="Fill-1815" fill="#FFFFFF" points="22 63 29 63 29 53 22 53"></polygon>
                        <path d="M22.9739777,62.0710826 L27.0260223,62.0710826 L27.0260223,54.9289174 L22.9739777,54.9289174 L22.9739777,62.0710826 Z M20,65 L30,65 L30,52 L20,52 L20,65 Z" id="Fill-1816" fill="#5D9EE2"></path>
                        <polygon id="Fill-1817" fill="#FCE302" points="36 64 43 64 43 35 36 35"></polygon>
                        <path d="M36.9741988,61.994388 L41.0258012,61.994388 L41.0258012,36.005612 L36.9741988,36.005612 L36.9741988,61.994388 Z M34,65 L44,65 L44,33 L34,33 L34,65 Z" id="Fill-1818" fill="#FCE302"></path>
                        <polygon id="Fill-1819" fill="#FFFFFF" points="36 64 43 64 43 42 36 42"></polygon>
                        <path d="M36.9741988,61.992843 L41.0258012,61.992843 L41.0258012,43.007157 L36.9741988,43.007157 L36.9741988,61.992843 Z M34,65 L44,65 L44,40 L34,40 L34,65 Z" id="Fill-1820" fill="#5D9EE2"></path>
                        <polygon id="Fill-1821" fill="#FCE302" points="49 64 56 64 56 32 49 32"></polygon>
                        <path d="M50.9739777,61.9948698 L55.0260223,61.9948698 L55.0260223,33.0051302 L50.9739777,33.0051302 L50.9739777,61.9948698 Z M48,65 L58,65 L58,30 L48,30 L48,65 Z" id="Fill-1822" fill="#FCE302"></path>
                        <polygon id="Fill-1823" fill="#FFFFFF" points="49 63 56 63 56 45 49 45"></polygon>
                        <path d="M50.9739777,61.9734092 L55.0260223,61.9734092 L55.0260223,47.0265908 L50.9739777,47.0265908 L50.9739777,61.9734092 Z M48,65 L58,65 L58,44 L48,44 L48,65 Z" id="Fill-1824" fill="#5D9EE2"></path>
                        <polygon id="Fill-1825" fill="#FCE302" points="63 64 70 64 70 21 63 21"></polygon>
                        <path d="M63.9739777,62.9546508 L68.0260223,62.9546508 L68.0260223,23.0453492 L63.9739777,23.0453492 L63.9739777,62.9546508 Z M61,66 L71,66 L71,20 L61,20 L61,66 Z" id="Fill-1826" fill="#FCE302"></path>
                        <polygon id="Fill-1827" fill="#FFFFFF" points="63 64 70 64 70 27 63 27"></polygon>
                        <path d="M63.9739777,62.9574229 L68.0260223,62.9574229 L68.0260223,29.0425771 L63.9739777,29.0425771 L63.9739777,62.9574229 Z M61,66 L71,66 L71,26 L61,26 L61,66 Z" id="Fill-1828" fill="#5D9EE2"></path>
                    </g>
                </g>
            </g>
        </g>
    </g>
</svg>