<?xml version="1.0" encoding="UTF-8"?>
<svg width="75px" height="80px" viewBox="0 0 75 80" version="1.1" xmlns="http://www.w3.org/2000/svg" xmlns:xlink="http://www.w3.org/1999/xlink">
    <!-- Generator: sketchtool 50.2 (55047) - http://www.bohemiancoding.com/sketch -->
    <title>D8ECF2F1-3A3B-4F91-B577-7F3F8A2EB564</title>
    <desc>Created with sketchtool.</desc>
    <defs></defs>
    <g id="Page-1" stroke="none" stroke-width="1" fill="none" fill-rule="evenodd">
        <g id="01_LandingPage_Service" transform="translate(-335.000000, -336.000000)">
            <g id="Content" transform="translate(156.000000, 101.000000)">
                <g id="Content_Block_1_Creation" transform="translate(51.000000, 235.000000)">
                    <g id="Icon_Multiple_Creatiopn" transform="translate(128.000000, 0.000000)">
                        <path d="M1,60 L1,66.4045426 C1,67.6318519 2.19103481,69 3.35460181,69 L71.1398188,69 C72.3041488,69 73,67.7380846 73,66.5091657 L73,60 L1,60" id="Fill-1621" fill="#D6E7F2"></path>
                        <path d="M3.0498653,62.1614305 L3.0498653,66.8703813 C3.0498653,67.249753 3.59960352,67.8385695 3.87790373,67.8385695 L71.6161745,67.8385695 C71.7130077,67.8385695 71.9501347,67.4647303 71.9501347,66.9731278 L71.9501347,62.1614305 L3.0498653,62.1614305 Z M71.6161745,71 L3.87790373,71 C1.88405429,71 0,68.9924916 0,66.8703813 L0,59 L75,59 L75,66.9731278 C75,68.9529737 73.7343059,71 71.6161745,71 Z" id="Fill-1622" fill="#D6E7F2"></path>
                        <path d="M26.1094012,80 L25,77.1710324 C25.6939004,76.8405239 26.2667879,76.5454545 26.5731673,76.3597843 L26.6675993,76.3027735 C26.7550364,76.2503852 26.830582,76.2087827 26.8949356,76.1640986 C26.925014,76.0762712 26.9830722,75.8690293 27.0677112,75.3975347 C27.220901,74.5493066 27.2006156,72.9044684 27.1845271,71.5832049 C27.1726357,70.6001541 27.1614438,69.6702619 27.2118075,69 L30,69.2526965 C29.9615277,69.7773498 29.9713206,70.6340524 29.9825126,71.5431433 C30.0020985,73.1587057 30.0223839,74.8312789 29.812535,75.9969183 C29.4816732,77.8359014 29.0738668,78.3605547 28.0176273,79.0015408 L27.9245943,79.0585516 C27.399972,79.3767334 26.5626749,79.7842835 26.1094012,80" id="Fill-1624" fill="#D6E7F2"></path>
                        <path d="M47.8765467,80 C47.3084927,79.7269201 46.5281215,79.3397983 46.045135,79.0480993 L45.9783465,79.0085337 C44.8288808,78.3033359 44.511108,77.7618309 44.1884139,75.9588829 C43.9775028,74.7843289 43.9978909,73.1264546 44.0175759,71.522886 C44.0281215,70.6260667 44.037964,69.7788984 44,69.2513576 L46.802306,69 C46.8522216,69.6733902 46.840973,70.5919317 46.8290214,71.5647789 C46.8135546,72.8727696 46.7931665,74.5011637 46.9471316,75.3568658 C47.0329021,75.8378588 47.0891451,76.0581846 47.1200787,76.1574864 C47.1833521,76.200931 47.257171,76.2420481 47.3436445,76.2948022 C47.6986783,76.5089216 48.2695444,76.8044996 49,77.155159 L47.8765467,80" id="Fill-1626" fill="#D6E7F2"></path>
                        <path d="M24,78 L51,78" id="Fill-1627" fill="#FFFFFF"></path>
                        <polygon id="Fill-1628" fill="#D6E7F2" points="24 80 51 80 51 77 24 77"></polygon>
                        <path d="M10.0497016,16 L2.97127503,16 C1.88375396,16 1,16.8835035 1,17.9680803 L1,60 L73,60 L73,17.9680803 C73,16.8835035 72.1139565,16 71.0271986,16 L63.9716672,16" id="Fill-1629" fill="#A2CEEA"></path>
                        <path d="M75,62 L0,62 L0,18.4879068 C0,16.564384 1.56721882,15 3.49516488,15 L10.5686221,15 L10.5686221,18.0435486 L3.49516488,18.0435486 C3.2495958,18.0435486 3.05054757,18.2429011 3.05054757,18.4879068 L3.05054757,58.9564514 L71.9494524,58.9564514 L71.9494524,18.4879068 C71.9494524,18.2429011 71.7488789,18.0435486 71.5033098,18.0435486 L64.4527318,18.0435486 L64.4527318,15 L71.5033098,15 C73.4312559,15 75,16.564384 75,18.4879068 L75,62" id="Fill-1630" fill="#D6E7F2"></path>
                        <path d="M7,55 L14,55 L14,22 L7,22 L7,55 Z M7,55 L14,55 L14,22 L7,22 L7,55 Z M7,55 L14,55 L14,22 L7,22 L7,55 Z" id="Fill-1631" fill="#5D9EE2"></path>
                        <path d="M16,54 L58,54 L58,16 L16,16 L16,54 Z M16,54 L58,54 L58,16 L16,16 L16,54 Z M16,54 L58,54 L58,16 L16,16 L16,54 Z" id="Fill-1631" fill="#5D9EE2"></path>
                        <polygon id="Fill-1632" fill="#5D9EE2" points="58 55 67 55 67 22 58 22"></polygon>
                        <polygon id="Fill-1633" fill="#D6E7F2" points="58 55 61 55 61 15 58 15"></polygon>
                        <polyline id="Fill-1634" fill="#D6E7F2" points="16.0814546 54 13 54 13 0 47 0 47 3.03524254 16.0814546 3.03524254 16.0814546 54"></polyline>
                        <polyline id="Fill-1635" fill="#FCE302" points="49 13 61 13 49 1 49 13"></polyline>
                        <polygon id="Fill-1636" fill="#D6E7F2" points="30 18 51 18 51 15 30 15"></polygon>
                        <polygon id="Fill-1637" fill="#D6E7F2" points="30 23 51 23 51 20 30 20"></polygon>
                        <polyline id="Fill-1638" fill="#D6E7F2" points="23.1116643 22 20 19.8868207 21.541963 17.3692769 22.4921764 18.0147625 24.7759602 15 27 16.8690629 23.1116643 22"></polyline>
                        <polygon id="Fill-1639" fill="#D6E7F2" points="30 32 51 32 51 29 30 29"></polygon>
                        <polygon id="Fill-1640" fill="#D6E7F2" points="30 37 51 37 51 34 30 34"></polygon>
                        <polyline id="Fill-1641" fill="#D6E7F2" points="23.1120593 36 20 33.8860719 21.5432287 31.3692769 22.4926344 32.0147625 24.7761861 29 27 30.8675653 23.1120593 36"></polyline>
                        <polygon id="Fill-1642" fill="#D6E7F2" points="30 46 51 46 51 43 30 43"></polygon>
                        <polygon id="Fill-1643" fill="#D6E7F2" points="30 51 51 51 51 48 30 48"></polygon>
                        <polyline id="Fill-1644" fill="#D6E7F2" points="23.1120593 51 20 48.886298 21.5432287 46.3690234 22.4926344 47.01444 24.7761861 44 27 45.8673655 23.1120593 51"></polyline>
                    </g>
                </g>
            </g>
        </g>
    </g>
</svg>