<?xml version="1.0" encoding="UTF-8"?>
<svg width="101px" height="95px" viewBox="0 0 101 95" version="1.1" xmlns="http://www.w3.org/2000/svg" xmlns:xlink="http://www.w3.org/1999/xlink">
    <!-- Generator: sketchtool 50.2 (55047) - http://www.bohemiancoding.com/sketch -->
    <title>232F4172-23B8-4E5B-91D1-15B7D5ACBC18</title>
    <desc>Created with sketchtool.</desc>
    <defs></defs>
    <g id="Page-1" stroke="none" stroke-width="1" fill="none" fill-rule="evenodd">
        <g id="00_LandingPage_Start" transform="translate(-740.000000, -300.000000)">
            <g id="Content" transform="translate(233.000000, 298.000000)">
                <g id="Icons-top" transform="translate(366.000000, 0.000000)">
                    <g id="Icon-Growth" transform="translate(141.000000, 2.000000)">
                        <path d="M54.371,4.276 C53.169,4.176 51.944,4.125 50.731,4.125 L50.587,4.125 L50.587,0.125 L50.715,0.125 C52.058,0.125 53.393,0.181 54.703,0.29 L54.371,4.276 Z M43.072,4.799 L42.371,0.861 C43.718,0.622 45.094,0.438 46.46,0.315 L46.817,4.299 C45.566,4.412 44.306,4.58 43.072,4.799 Z M61.808,5.553 C60.6,5.234 59.358,4.965 58.118,4.752 L58.796,0.81 C60.15,1.042 61.507,1.337 62.829,1.686 L61.808,5.553 Z M35.788,6.771 L34.409,3.016 C35.696,2.543 37.019,2.122 38.342,1.764 L39.387,5.625 C38.177,5.953 36.966,6.338 35.788,6.771 Z M68.909,8.111 C67.774,7.585 66.599,7.102 65.415,6.675 L66.771,2.913 C68.064,3.378 69.35,3.906 70.591,4.481 L68.909,8.111 Z M28.961,9.983 L26.949,6.526 C28.134,5.836 29.363,5.191 30.602,4.608 L32.305,8.227 C31.171,8.761 30.046,9.351 28.961,9.983 Z M75.461,11.869 C74.431,11.152 73.356,10.472 72.268,9.847 L74.26,6.377 C75.448,7.06 76.622,7.803 77.746,8.586 L75.461,11.869 Z M22.793,14.334 L20.211,11.279 C21.257,10.396 22.355,9.546 23.477,8.756 L25.783,12.024 C24.756,12.749 23.75,13.526 22.793,14.334 Z M81.264,16.706 C80.37,15.819 79.429,14.964 78.467,14.161 L81.029,11.09 C82.079,11.965 83.105,12.899 84.08,13.866 L81.264,16.706 Z M17.466,19.689 L14.396,17.124 C15.276,16.071 16.212,15.044 17.177,14.075 L20.013,16.896 C19.129,17.785 18.271,18.725 17.466,19.689 Z M86.14,22.47 C85.417,21.448 84.638,20.442 83.826,19.482 L86.88,16.899 C87.767,17.947 88.616,19.045 89.405,20.162 L86.14,22.47 Z M13.144,25.883 L9.677,23.887 C10.362,22.697 11.106,21.524 11.889,20.403 L15.17,22.692 C14.453,23.719 13.771,24.792 13.144,25.883 Z M89.945,28.99 C89.408,27.853 88.816,26.728 88.186,25.646 L91.641,23.631 C92.33,24.813 92.977,26.041 93.563,27.281 L89.945,28.99 Z M9.965,32.732 L6.203,31.372 C6.669,30.083 7.198,28.798 7.775,27.554 L11.404,29.237 C10.876,30.376 10.392,31.552 9.965,32.732 Z M92.556,36.069 C92.225,34.854 91.838,33.643 91.406,32.472 L95.158,31.087 C95.631,32.368 96.054,33.691 96.415,35.02 L92.556,36.069 Z M8.033,40.026 L4.092,39.346 C4.324,37.999 4.62,36.642 4.972,35.313 L8.839,36.336 C8.517,37.552 8.246,38.794 8.033,40.026 Z M93.888,43.496 C93.775,42.247 93.605,40.988 93.384,39.754 L97.321,39.046 C97.563,40.395 97.749,41.771 97.872,43.138 L93.888,43.496 Z M3.398,47.555 L3.4,47.399 C3.399,46.122 3.456,44.77 3.567,43.439 L7.554,43.773 C7.451,44.993 7.399,46.233 7.399,47.458 L3.398,47.555 Z M97.889,51.578 L93.904,51.234 C94.012,49.985 94.066,48.714 94.066,47.458 L94.066,47.265 L98.066,47.265 L98.066,47.458 C98.066,48.829 98.007,50.215 97.889,51.578 Z M4.127,55.77 C3.888,54.42 3.706,53.044 3.586,51.678 L7.57,51.329 C7.681,52.578 7.847,53.837 8.066,55.072 L4.127,55.77 Z M96.469,59.701 L92.604,58.669 C92.927,57.46 93.2,56.22 93.417,54.98 L97.356,55.67 C97.12,57.023 96.821,58.38 96.469,59.701 Z M6.272,63.734 C5.801,62.445 5.38,61.122 5.024,59.799 L8.886,58.758 C9.212,59.968 9.597,61.179 10.028,62.358 L6.272,63.734 Z M93.647,67.454 L90.022,65.763 C90.556,64.622 91.042,63.447 91.469,62.272 L95.229,63.639 C94.762,64.924 94.229,66.208 93.647,67.454 Z M9.774,71.199 C9.087,70.015 8.442,68.785 7.859,67.544 L11.48,65.844 C12.014,66.979 12.604,68.105 13.233,69.189 L9.774,71.199 Z M89.52,74.595 L86.244,72.3 C86.967,71.268 87.65,70.196 88.276,69.114 L91.739,71.116 C91.056,72.298 90.31,73.469 89.52,74.595 Z M14.521,77.941 C13.636,76.89 12.788,75.791 12.002,74.672 L15.273,72.371 C15.993,73.394 16.77,74.401 17.58,75.363 L14.521,77.941 Z M84.216,80.914 L81.388,78.084 C82.272,77.201 83.131,76.264 83.94,75.298 L87.005,77.87 C86.12,78.924 85.182,79.948 84.216,80.914 Z M20.36,83.762 C19.312,82.883 18.287,81.947 17.315,80.979 L20.138,78.145 C21.029,79.033 21.968,79.891 22.929,80.696 L20.36,83.762 Z M77.906,86.218 L75.607,82.944 C76.633,82.225 77.64,81.45 78.603,80.641 L81.177,83.702 C80.126,84.586 79.025,85.433 77.906,86.218 Z M27.119,88.489 C25.928,87.802 24.757,87.057 23.637,86.272 L25.93,82.995 C26.955,83.712 28.027,84.395 29.117,85.024 L27.119,88.489 Z M70.772,90.351 L69.077,86.728 C70.211,86.198 71.337,85.609 72.424,84.979 L74.43,88.441 C73.242,89.129 72.012,89.771 70.772,90.351 Z M34.6,91.97 C33.312,91.503 32.027,90.973 30.783,90.394 L32.471,86.767 C33.609,87.297 34.784,87.782 35.963,88.209 L34.6,91.97 Z M63.026,93.178 L61.989,89.315 C63.199,88.99 64.41,88.607 65.591,88.177 L66.962,91.935 C65.672,92.405 64.348,92.824 63.026,93.178 Z M42.57,94.09 C41.218,93.854 39.86,93.557 38.538,93.205 L39.567,89.34 C40.776,89.661 42.018,89.934 43.256,90.149 L42.57,94.09 Z M54.904,94.609 L54.557,90.625 C55.81,90.515 57.069,90.35 58.301,90.132 L58.996,94.072 C57.649,94.309 56.273,94.49 54.904,94.609 Z M50.781,94.791 L50.731,94.791 C49.374,94.791 48.005,94.733 46.662,94.619 L47.002,90.633 C48.232,90.738 49.487,90.791 50.731,90.791 L50.781,94.791 Z" id="Fill-1780" fill="#5D9EE2"></path>
                        <path d="M81.399,47.458 C81.399,64.395 67.669,78.125 50.731,78.125 C33.796,78.125 20.065,64.395 20.065,47.458 C20.065,30.521 33.796,16.791 50.731,16.791 C67.669,16.791 81.399,30.521 81.399,47.458" id="Fill-1781" fill="#D6E7F2"></path>
                        <polyline id="Fill-1782" fill="#FCE302" points="75.929 12.68 75.929 21.274 84.76 21.274 57.489 47.692 42.313 34.684 2.977 76.335 9.225 82.237 42.939 46.539 57.844 59.314 89.896 28.265 89.896 35.24 98.489 35.24 98.489 12.68 75.929 12.68"></polyline>
                        <path d="M5.804,76.254 L9.144,79.41 L42.794,43.78 L57.762,56.609 L91.896,23.542 L91.896,33.24 L96.489,33.24 L96.489,14.68 L77.929,14.68 L77.929,19.274 L89.699,19.274 L57.571,50.396 L42.458,37.443 L5.804,76.254 Z M9.306,85.064 L0.149,76.416 L42.167,31.925 L57.407,44.987 L79.82,23.274 L73.929,23.274 L73.929,10.68 L100.489,10.68 L100.489,37.24 L87.896,37.24 L87.896,32.986 L57.926,62.019 L43.085,49.298 L9.306,85.064 Z" id="Fill-1783" fill="#5D9EE2"></path>
                    </g>
                </g>
            </g>
        </g>
    </g>
</svg>