<?xml version="1.0" encoding="UTF-8"?>
<svg width="78px" height="72px" viewBox="0 0 78 72" version="1.1" xmlns="http://www.w3.org/2000/svg" xmlns:xlink="http://www.w3.org/1999/xlink">
    <!-- Generator: sketchtool 50.2 (55047) - http://www.bohemiancoding.com/sketch -->
    <title>5C4411BE-40B6-4B57-B954-87995065F710</title>
    <desc>Created with sketchtool.</desc>
    <defs></defs>
    <g id="Page-1" stroke="none" stroke-width="1" fill="none" fill-rule="evenodd">
        <g id="01_LandingPage_Service" transform="translate(-1018.000000, -341.000000)">
            <g id="Content" transform="translate(156.000000, 101.000000)">
                <g id="Content_Block_3_Analytics" transform="translate(696.000000, 240.000000)">
                    <g id="Icon_Web-Analytics" transform="translate(166.000000, 0.000000)">
                        <polygon id="Fill-1799" fill="#5D9EE2" points="1 69 75 69 75 1 1 1"></polygon>
                        <path d="M3.04390244,68.9495403 L74.9560976,68.9495403 L74.9560976,3.05045969 L3.04390244,3.05045969 L3.04390244,68.9495403 Z M0,72 L78,72 L78,0 L0,0 L0,72 Z" id="Fill-1800" fill="#D6E7F2"></path>
                        <polygon id="Fill-1801" fill="#5D9EE2" points="1 10 75 10 75 1 1 1"></polygon>
                        <path d="M3.04390244,8.90322581 L74.9560976,8.90322581 L74.9560976,3.09677419 L3.04390244,3.09677419 L3.04390244,8.90322581 Z M0,12 L78,12 L78,0 L0,0 L0,12 Z" id="Fill-1802" fill="#D6E7F2"></path>
                        <path d="M5,5 L8,5" id="Fill-1803" fill="#FFFFFF"></path>
                        <polygon id="Fill-1804" fill="#FFFFFF" points="5 8 8 8 8 5 5 5"></polygon>
                        <path d="M10,5 L13,5" id="Fill-1805" fill="#FFFFFF"></path>
                        <polygon id="Fill-1806" fill="#FFFFFF" points="10 8 13 8 13 5 10 5"></polygon>
                        <path d="M15,5 L18,5" id="Fill-1807" fill="#FFFFFF"></path>
                        <polygon id="Fill-1808" fill="#FFFFFF" points="15 8 18 8 18 5 15 5"></polygon>
                        <polygon id="Fill-1809" fill="#FCE302" points="8 64 15 64 15 54 8 54"></polygon>
                        <path d="M8.9739777,62.9567507 L13.0260223,62.9567507 L13.0260223,56.0432493 L8.9739777,56.0432493 L8.9739777,62.9567507 Z M6,66 L16,66 L16,53 L6,53 L6,66 Z" id="Fill-1810" fill="#FCE302"></path>
                        <polygon id="Fill-1811" fill="#5D9EE2" points="8 63 15 63 15 58 8 58"></polygon>
                        <path d="M8.9739777,62.8841959 L13.0260223,62.8841959 L13.0260223,60.1158041 L8.9739777,60.1158041 L8.9739777,62.8841959 Z M6,66 L16,66 L16,57 L6,57 L6,66 Z" id="Fill-1812" fill="#D6E7F2"></path>
                        <polygon id="Fill-1813" fill="#FCE302" points="22 64 29 64 29 45 22 45"></polygon>
                        <path d="M22.9739777,62.8905262 L27.0260223,62.8905262 L27.0260223,46.1094738 L22.9739777,46.1094738 L22.9739777,62.8905262 Z M20,66 L30,66 L30,43 L20,43 L20,66 Z" id="Fill-1814" fill="#FCE302"></path>
                        <polygon id="Fill-1815" fill="#5D9EE2" points="22 64 29 64 29 54 22 54"></polygon>
                        <path d="M22.9739777,62.8457812 L27.0260223,62.8457812 L27.0260223,55.1542188 L22.9739777,55.1542188 L22.9739777,62.8457812 Z M20,66 L30,66 L30,52 L20,52 L20,66 Z" id="Fill-1816" fill="#D6E7F2"></path>
                        <polygon id="Fill-1817" fill="#FCE302" points="35 64 42 64 42 35 35 35"></polygon>
                        <path d="M36.9741988,61.994388 L41.0258012,61.994388 L41.0258012,36.005612 L36.9741988,36.005612 L36.9741988,61.994388 Z M34,65 L44,65 L44,33 L34,33 L34,65 Z" id="Fill-1818" fill="#FCE302"></path>
                        <polygon id="Fill-1819" fill="#5D9EE2" points="35 64 42 64 42 42 35 42"></polygon>
                        <path d="M36.9741988,62.8725567 L41.0258012,62.8725567 L41.0258012,43.1274433 L36.9741988,43.1274433 L36.9741988,62.8725567 Z M34,66 L44,66 L44,40 L34,40 L34,66 Z" id="Fill-1820" fill="#D6E7F2"></path>
                        <polygon id="Fill-1821" fill="#FCE302" points="49 64 56 64 56 32 49 32"></polygon>
                        <path d="M49.9739777,62.909009 L54.0260223,62.909009 L54.0260223,33.090991 L49.9739777,33.090991 L49.9739777,62.909009 Z M47,66 L57,66 L57,30 L47,30 L47,66 Z" id="Fill-1822" fill="#FCE302"></path>
                        <polygon id="Fill-1823" fill="#5D9EE2" points="49 64 56 64 56 46 49 46"></polygon>
                        <path d="M49.9739777,62.9734092 L54.0260223,62.9734092 L54.0260223,48.0265908 L49.9739777,48.0265908 L49.9739777,62.9734092 Z M47,66 L57,66 L57,45 L47,45 L47,66 Z" id="Fill-1824" fill="#D6E7F2"></path>
                        <polygon id="Fill-1825" fill="#FCE302" points="63 64 70 64 70 21 63 21"></polygon>
                        <path d="M63.9739777,61.9546508 L68.0260223,61.9546508 L68.0260223,22.0453492 L63.9739777,22.0453492 L63.9739777,61.9546508 Z M61,65 L71,65 L71,19 L61,19 L61,65 Z" id="Fill-1826" fill="#FCE302"></path>
                        <polygon id="Fill-1827" fill="#5D9EE2" points="63 63 70 63 70 27 63 27"></polygon>
                        <path d="M63.9739777,62.9574229 L68.0260223,62.9574229 L68.0260223,29.0425771 L63.9739777,29.0425771 L63.9739777,62.9574229 Z M61,66 L71,66 L71,26 L61,26 L61,66 Z" id="Fill-1828" fill="#D6E7F2"></path>
                    </g>
                </g>
            </g>
        </g>
    </g>
</svg>