<?xml version="1.0" encoding="UTF-8"?>
<svg width="82px" height="81px" viewBox="0 0 82 81" version="1.1" xmlns="http://www.w3.org/2000/svg" xmlns:xlink="http://www.w3.org/1999/xlink">
    <!-- Generator: sketchtool 50.2 (55047) - http://www.bohemiancoding.com/sketch -->
    <title>B6A93722-47EC-4F86-89AF-8A382BF226D0</title>
    <desc>Created with sketchtool.</desc>
    <defs></defs>
    <g id="Page-1" stroke="none" stroke-width="1" fill="none" fill-rule="evenodd">
        <g id="02_LandingPage_Agency" transform="translate(-332.000000, -589.000000)">
            <g id="Content" transform="translate(113.000000, 102.000000)">
                <g id="Content_Block_2_Optimization" transform="translate(0.000000, 487.000000)">
                    <g id="Icon_Optimization" transform="translate(219.000000, 0.000000)">
                        <polygon id="Fill-1461" fill="#FFFFFF" points="2 10 80 10 80 1 2 1"></polygon>
                        <path d="M3.2,8.90322581 L78.8,8.90322581 L78.8,3.09677419 L3.2,3.09677419 L3.2,8.90322581 Z M0,12 L82,12 L82,0 L0,0 L0,12 Z" id="Fill-1462" fill="#5D9EE2"></path>
                        <path d="M6,6 L9,6" id="Fill-1463" fill="#FFFFFF"></path>
                        <polygon id="Fill-1464" fill="#5D9EE2" points="6 7 9 7 9 4 6 4"></polygon>
                        <path d="M11,6 L14,6" id="Fill-1465" fill="#FFFFFF"></path>
                        <polygon id="Fill-1466" fill="#5D9EE2" points="11 7 14 7 14 4 11 4"></polygon>
                        <path d="M16,6 L19,6" id="Fill-1467" fill="#FFFFFF"></path>
                        <polygon id="Fill-1468" fill="#5D9EE2" points="16 7 19 7 19 4 16 4"></polygon>
                        <polyline id="Fill-1469" fill="#5D9EE2" points="82 56 71.3016 56 71.3016 52.8403361 78.8 52.8403361 78.8 12.1596639 3.2 12.1596639 3.2 52.8403361 10.6984 52.8403361 10.6984 56 0 56 0 9 82 9 82 56"></polyline>
                        <polygon id="Fill-1470" fill="#FFFFFF" points="7 49 76 49 76 16 7 16"></polygon>
                        <path d="M65,54.4988172 C65,68.0288386 54.0305922,79 40.5,79 C26.9678307,79 16,68.0288386 16,54.4988172 C16,40.9703729 26.9678307,30 40.5,30 C54.0305922,30 65,40.9703729 65,54.4988172" id="Fill-1471" fill="#FCE302"></path>
                        <path d="M41.5,31.2053705 C28.6554732,31.2053705 18.205322,41.6548784 18.205322,54.498798 C18.205322,67.3443203 28.6554732,77.7946295 41.5,77.7946295 C54.3445268,77.7946295 64.794678,67.3443203 64.794678,54.498798 C64.794678,41.6548784 54.3445268,31.2053705 41.5,31.2053705 Z M41.5,81 C26.8877381,81 15,69.1112808 15,54.498798 C15,39.8871165 26.8877381,28 41.5,28 C56.1122619,28 68,39.8871165 68,54.498798 C68,69.1112808 56.1122619,81 41.5,81 Z" id="Fill-1472" fill="#5D9EE2"></path>
                        <path d="M41.2719574,35 C41.1805097,35 41.0906525,35.0056774 41,35.0064885 L41,55 L61,55 C60.9347938,43.9444016 52.127987,35 41.2719574,35" id="Fill-1473" fill="#FFFFFF"></path>
                        <path d="M46,22.9626199 C45.9968005,23.5368839 45.5168773,24 44.918573,24 L37.0758279,24 C36.4823228,24 36,23.5368839 36.0023996,22.9626199 L36,18.043555 C36.0023996,17.4677473 36.4823228,17 37.0758279,17 L44.918573,17.0030874 C45.5168773,17.0030874 46,17.4677473 45.9968005,18.043555 L46,22.9626199" id="Fill-1474" fill="#FFFFFF"></path>
                        <path d="M38.1534965,22.9393221 L44.8488668,22.9393221 L44.8457157,19.0637386 L38.1511332,19.0614431 L38.1534965,22.9393221 Z M45.3593504,26 L37.6351351,26 C36.9292813,26 36.2659678,25.7329558 35.7688765,25.2478384 C35.2717852,24.7634861 34.9992122,24.1192134 35.0023633,23.4351519 L35,18.5656133 C35.0055145,17.1477542 36.1879772,16 37.6351351,16 L45.3601382,16.0030607 C46.0683554,16.0030607 46.7332445,16.2716352 47.2319113,16.758283 C47.7290025,17.2441656 48.0007878,17.8876731 47.9968489,18.5724998 L48,23.4397429 C47.9921222,24.8568368 46.8080839,26 45.3593504,26 Z" id="Fill-1475" fill="#5D9EE2"></path>
                        <path d="M23.887573,32 L22.1159006,29.5436056 C21.9077489,29.257874 21.9879906,28.868172 22.2922734,28.672947 L26.3043567,26.1080942 C26.6070505,25.9143652 27.0225593,25.9876681 27.2299165,26.2748957 L29,28.7282981" id="Fill-1476" fill="#FFFFFF"></path>
                        <path d="M22.183098,34 L20.3949335,31.3482539 C20.053987,30.8460047 19.9272351,30.2363615 20.0403491,29.6339856 C20.1542654,29.0308022 20.4944097,28.5091736 20.9990106,28.165997 L25.0494558,25.3955521 C25.5524523,25.051568 26.1597383,24.9272169 26.7565954,25.0410708 C27.3550569,25.1565397 27.8724934,25.4989088 28.21344,26.0060028 L30,28.6529041 L27.3462324,30.4681067 L26.0819223,28.5947659 L23.5725555,30.3098417 L24.8376679,32.1847974 L22.183098,34" id="Fill-1477" fill="#5D9EE2"></path>
                        <path d="M59.1144147,32 L60.8843613,29.5441124 C61.0924968,29.2576046 61.0114669,28.8678643 60.7072077,28.6741162 L56.6962292,26.1082635 C56.3927644,25.9145154 55.9788765,25.9870774 55.7715354,26.2758294 L54,28.7279767" id="Fill-1478" fill="#FFFFFF"></path>
                        <path d="M59.8176396,34 L57.1630917,32.1843946 L58.4265891,30.3106382 L55.9180453,28.5951818 L54.6521412,30.467323 L52,28.6509099 L53.7881497,26.004229 C54.4908949,24.9591251 55.9100231,24.6853306 56.9488988,25.3936428 L61.0009149,28.1647024 C61.5047095,28.5087629 61.844851,29.0313148 61.9595685,29.6330168 C62.0726816,30.2347187 61.946733,30.8444972 61.6033826,31.3508961 L59.8176396,34" id="Fill-1479" fill="#5D9EE2"></path>
                        <path d="M54,54.9995991 C54,62.1790087 48.1799901,68 41.0008019,68 C33.8208117,68 28,62.1790087 28,54.9995991 C28,47.8209913 33.8208117,42 41.0008019,42 C48.1799901,42 54,47.8209913 54,54.9995991" id="Fill-1480" fill="#FCE302"></path>
                        <path d="M41,36 L41,39" id="Fill-1481" fill="#FFFFFF"></path>
                        <polygon id="Fill-1482" fill="#5D9EE2" points="39 39 42 39 42 36 39 36"></polygon>
                        <path d="M32,39 L34,42" id="Fill-1483" fill="#FFFFFF"></path>
                        <polyline id="Fill-1484" fill="#5D9EE2" points="31.4371302 42 30 39.4898454 32.5628698 38 34 40.5094094 31.4371302 42"></polyline>
                        <path d="M25,45 L28,47" id="Fill-1485" fill="#FFFFFF"></path>
                        <polyline id="Fill-1486" fill="#5D9EE2" points="26.5085629 48 24 46.5592312 25.4921817 44 28 45.4407688 26.5085629 48"></polyline>
                        <path d="M23,55 L26,55" id="Fill-1487" fill="#FFFFFF"></path>
                        <polygon id="Fill-1488" fill="#5D9EE2" points="23 56 26 56 26 53 23 53"></polygon>
                        <path d="M25,64 L28,62" id="Fill-1489" fill="#FFFFFF"></path>
                        <polyline id="Fill-1490" fill="#5D9EE2" points="26.4900354 65 25 62.437604 27.5099646 61 29 63.562396 26.4900354 65"></polyline>
                        <path d="M32,71 L34,68" id="Fill-1491" fill="#FFFFFF"></path>
                        <polyline id="Fill-1492" fill="#5D9EE2" points="33.5597043 71 31 69.5080074 32.4395564 67 35 68.4919926 33.5597043 71"></polyline>
                        <path d="M41,73 L41.002,70" id="Fill-1493" fill="#FFFFFF"></path>
                        <polyline id="Fill-1494" fill="#5D9EE2" points="42.9985007 73 40 72.9984584 40.0014993 70 43 70.0015416 42.9985007 73"></polyline>
                        <path d="M51,71 L49,68" id="Fill-1495" fill="#FFFFFF"></path>
                        <polyline id="Fill-1496" fill="#5D9EE2" points="49.4378698 71 48 68.4888227 50.5628698 67 52 69.5111773 49.4378698 71"></polyline>
                        <path d="M58,64 L55,62" id="Fill-1497" fill="#FFFFFF"></path>
                        <polyline id="Fill-1498" fill="#5D9EE2" points="56.5072626 65 54 63.5597043 55.4919926 61 58 62.4410351 56.5072626 65"></polyline>
                        <path d="M60,54.005 L57,54" id="Fill-1499" fill="#FFFFFF"></path>
                        <polyline id="Fill-1500" fill="#5D9EE2" points="59.9953799 56 57 55.9962547 57.0046201 53 60 53.0037453 59.9953799 56"></polyline>
                        <path d="M57,45 L54,47" id="Fill-1501" fill="#FFFFFF"></path>
                        <polyline id="Fill-1502" fill="#5D9EE2" points="55.4888227 48 54 45.4371302 56.5111773 44 58 46.5636095 55.4888227 48"></polyline>
                        <path d="M51,38 L49,41" id="Fill-1503" fill="#FFFFFF"></path>
                        <polyline id="Fill-1504" fill="#5D9EE2" points="49.5599704 42 47 40.5084746 48.4400296 38 51 39.4922704 49.5599704 42"></polyline>
                        <path d="M43,53 L51,44" id="Fill-1505" fill="#FFFFFF"></path>
                        <polyline id="Fill-1506" fill="#5D9EE2" points="43.3326896 54 41 51.7360071 49.6664934 43 52 45.2648009 43.3326896 54"></polyline>
                        <path d="M44,54.501678 C43.9983207,53.1198787 42.878254,52.0025185 41.4987415,52 C40.119229,52.001679 38.9983226,53.1198787 39.0000019,54.5008385 C39.0000019,55.8801194 40.1183894,56.9999981 41.5004208,56.9999981 C42.878254,57.0016771 43.9983207,55.8801194 44,54.501678" id="Fill-1507" fill="#FFFFFF"></path>
                        <path d="M40.9947787,53.2141422 C40.567255,53.2141422 40.2144677,53.5660908 40.2144677,53.9975894 C40.2144677,54.4339092 40.567255,54.7858578 41.000404,54.7858578 L41.0020112,54.7858578 C41.4335529,54.7858578 41.784733,54.4331057 41.7855366,53.9991965 C41.784733,53.5693049 41.4303384,53.2141422 40.9947787,53.2141422 Z M41.0020112,58 C38.7952821,58 37.0000043,56.2057051 37.0000043,54.0008035 C36.9967899,51.7991161 38.7888532,50.0032141 40.9955823,50 C43.2039186,50.0048212 44.9975892,51.7991161 45,53.9991965 C44.9975892,56.2073122 43.2039186,58 41.0020112,58 Z" id="Fill-1508" fill="#5D9EE2"></path>
                        <polygon id="Fill-1509" fill="#5D9EE2" points="40 28 43 28 43 24 40 24"></polygon>
                    </g>
                </g>
            </g>
        </g>
    </g>
</svg>