<?xml version="1.0" encoding="UTF-8"?>
<svg width="85px" height="82px" viewBox="0 0 85 82" version="1.1" xmlns="http://www.w3.org/2000/svg" xmlns:xlink="http://www.w3.org/1999/xlink">
    <!-- Generator: sketchtool 50.2 (55047) - http://www.bohemiancoding.com/sketch -->
    <title>DE320121-E7E6-4213-87CC-6393C491591D</title>
    <desc>Created with sketchtool.</desc>
    <defs></defs>
    <g id="Page-1" stroke="none" stroke-width="1" fill="none" fill-rule="evenodd">
        <g id="02_LandingPage_Agency" transform="translate(-1014.000000, -336.000000)">
            <g id="Content" transform="translate(113.000000, 102.000000)">
                <g id="Content_Block_3_Support" transform="translate(719.000000, 234.000000)">
                    <g id="Icon_Support" transform="translate(182.000000, 0.000000)">
                        <path d="M46.4582009,65 C45.5672991,65 44.8455346,65.7364929 44.8455346,66.6455747 L44.8455346,68.0484998 C44.6052256,67.9434086 44.3289121,67.8784741 44.0308284,67.8784741 L40,67.8784741 L40,79.1206715 L44.0308284,79.1206715 C44.3289121,79.1206715 44.6052256,79.055737 44.8455346,78.9506458 L44.8455346,80.3552797 C44.8455346,81.2635071 45.5672991,82 46.4582009,82 L82.388171,81.9991456 C83.2773982,81.9991456 84,81.2635071 84,80.3535709 L84,66.6438659 C84,65.7356385 83.2773982,65 82.388171,65 L46.4582009,65" id="Fill-1732" fill="#FFFFFF"></path>
                        <path d="M40,74 L11,74.002" id="Fill-1733" fill="#FFFFFF"></path>
                        <polyline id="Fill-1734" fill="#5D9EE2" points="11 75 11 72.0014993 40 72 40 74.9985007 11 75"></polyline>
                        <polyline id="Fill-1735" fill="#FFFFFF" points="14 72.993865 10.1827522 76 2.00164395 74.2496024 2 70.7503976 10.1827522 69 14 72.0069302 14 72.993865"></polyline>
                        <path d="M3.44258065,73.9977906 L9.84344086,75.3771903 L12.2107527,73.500838 L9.84344086,71.6228097 L3.44258065,73.0022094 L3.44258065,73.9977906 Z M10.7260215,79 L0.00344086022,76.6895475 L0,70.3112906 L10.7260215,68 L16,72.1834527 L16,74.8173853 L10.7260215,79 Z" id="Fill-1736" fill="#5D9EE2"></path>
                        <path d="M49,76 L79,76" id="Fill-1737" fill="#FFFFFF"></path>
                        <polygon id="Fill-1738" fill="#5D9EE2" points="49 77 79 77 79 74 49 74"></polygon>
                        <path d="M49,70 L79,70" id="Fill-1739" fill="#FFFFFF"></path>
                        <polygon id="Fill-1740" fill="#5D9EE2" points="49 72 79 72 79 69 49 69"></polygon>
                        <path d="M45,82 L45,65" id="Fill-1741" fill="#FFFFFF"></path>
                        <polygon id="Fill-1742" fill="#5D9EE2" points="43 82 46 82 46 65 43 65"></polygon>
                        <path d="M4.3656543,55.6432462 L81.6343457,55.6432462 L81.6343457,11.3567538 L4.3656543,11.3567538 L4.3656543,55.6432462 Z M1,59 L85,59 L85,8 L1,8 L1,59 Z" id="Fill-1743" fill="#5D9EE2"></path>
                        <polygon id="Fill-1744" fill="#FFFFFF" points="8 52 79 52 79 15 8 15"></polygon>
                        <polyline id="Fill-1745" fill="#5D9EE2" points="54 6 50.620973 6 50.620973 3.13479624 35.379027 3.13479624 35.379027 6 32 6 32 0 54 0 54 6"></polyline>
                        <path d="M58,35.9475912 L58,31.5967883 L54.1319843,31.2742244 C53.8610793,29.8502021 53.3387405,28.5167686 52.607297,27.3221816 L55.190207,24.2701005 L52.1128953,21.1934673 L49.1515648,23.7003223 C47.9925993,22.9112683 46.684636,22.3245576 45.2793162,21.9867544 L44.9474575,18 L40.5968922,18 L40.274346,21.8673804 C38.8504014,22.1383002 37.5178874,22.6615141 36.3242121,23.392151 L33.2706046,20.8090998 L30.1949861,23.885733 L32.7000109,26.8480719 C31.9110001,28.0071007 31.3260145,29.3151355 30.9865367,30.7196854 L27,31.0532554 L27,35.4032117 L30.8680157,35.7257756 C31.1389207,37.1497979 31.6612595,38.4832314 32.3943962,39.6769718 L29.8114862,42.7298995 L32.8871047,45.805686 L35.8484352,43.301371 C37.0074007,44.0895783 38.315364,44.6754424 39.7206838,45.0132456 L40.0525425,49 L44.4031078,49 L44.725654,45.1326196 C46.1495986,44.8616998 47.4821126,44.3384859 48.6757879,43.6070024 L51.7293954,46.1909002 L54.8050139,43.114267 L52.2999891,40.1527747 C53.0889999,38.9920527 53.6739855,37.6840179 54.0134633,36.279468 L58,35.9475912" id="Fill-1746" fill="#FCE302"></path>
                        <path d="M49,33.4995717 C49,37.089028 46.0893093,40 42.5,40 C38.9106907,40 36,37.089028 36,33.4995717 C36,29.9092586 38.9106907,27 42.5,27 C46.0893093,27 49,29.9092586 49,33.4995717" id="Fill-1747" fill="#FFFFFF"></path>
                        <path d="M43,28.3376793 C40.4295848,28.3376793 38.3382015,30.4295698 38.3382015,32.9995828 C38.3382015,35.5695958 40.4295848,37.6623207 43,37.6623207 C45.5704152,37.6623207 47.6617985,35.5695958 47.6617985,32.9995828 C47.6617985,30.4295698 45.5704152,28.3376793 43,28.3376793 Z M43,41 C38.5885667,41 35,37.4111604 35,32.9995828 C35,28.5888396 38.5885667,25 43,25 C47.4114333,25 51,28.5888396 51,32.9995828 C51,37.4111604 47.4114333,41 43,41 Z" id="Fill-1748" fill="#5D9EE2"></path>
                        <path d="M16,35 L12.1445123,35 C5.47890247,35 1,29.9442756 1,22.4189463 L1,10 L4.45861194,10 L4.45861194,22.4189463 C4.45861194,26.8693009 6.47757667,31.6227626 12.1445123,31.6227626 L16,31.6227626 L16,35" id="Fill-1749" fill="#5D9EE2"></path>
                        <polygon id="Fill-1750" fill="#FFFFFF" points="16 35 23 35 23 29 16 29"></polygon>
                        <path d="M17.2967939,34.5715265 L20.7032061,34.5715265 L20.7032061,31.4284735 L17.2967939,31.4284735 L17.2967939,34.5715265 Z M14,38 L24,38 L24,28 L14,28 L14,38 Z" id="Fill-1751" fill="#5D9EE2"></path>
                        <path d="M73.8554877,35 L70,35 L70,31.6227626 L73.8554877,31.6227626 C79.5224233,31.6227626 81.5413881,26.8693009 81.5413881,22.4189463 L81.5413881,10 L85,10 L85,22.4189463 C85,29.9442756 80.5210975,35 73.8554877,35" id="Fill-1752" fill="#5D9EE2"></path>
                        <polygon id="Fill-1753" fill="#FFFFFF" points="63 35 70 35 70 29 63 29"></polygon>
                        <path d="M64.2967939,34.5715265 L67.7032061,34.5715265 L67.7032061,31.4284735 L64.2967939,31.4284735 L64.2967939,34.5715265 Z M61,38 L71,38 L71,28 L61,28 L61,38 Z" id="Fill-1754" fill="#5D9EE2"></path>
                    </g>
                </g>
            </g>
        </g>
    </g>
</svg>