<?xml version="1.0" encoding="UTF-8"?>
<svg width="103px" height="97px" viewBox="0 0 103 97" version="1.1" xmlns="http://www.w3.org/2000/svg" xmlns:xlink="http://www.w3.org/1999/xlink">
    <!-- Generator: sketchtool 50.2 (55047) - http://www.bohemiancoding.com/sketch -->
    <title>6C0AA6CA-98ED-46CE-836F-830B9D099244</title>
    <desc>Created with sketchtool.</desc>
    <defs></defs>
    <g id="Page-1" stroke="none" stroke-width="1" fill="none" fill-rule="evenodd">
        <g id="00_LandingPage_Start" transform="translate(-599.000000, -298.000000)">
            <g id="Content" transform="translate(233.000000, 298.000000)">
                <g id="Icons-top" transform="translate(366.000000, 0.000000)">
                    <g id="Icon-Web">
                        <path d="M94.392,55.996 C94.778,53.597 95.032,51.16 95.032,48.655 C95.032,23.143 74.347,2.464 48.837,2.464 C23.325,2.464 2.644,23.143 2.644,48.655 C2.644,74.164 23.325,94.845 48.837,94.845 C64.812,94.845 78.89,86.737 87.185,74.414" id="Fill-1645" fill="#FFFFFF"></path>
                        <path d="M48.837,96.845 C22.263,96.845 0.644,75.227 0.644,48.655 C0.644,22.083 22.263,0.464 48.837,0.464 C75.412,0.464 97.032,22.083 97.032,48.655 C97.032,51.029 96.814,53.534 96.366,56.314 L92.417,55.677 C92.831,53.11 93.032,50.813 93.032,48.655 C93.032,24.288 73.206,4.464 48.837,4.464 C24.469,4.464 4.644,24.288 4.644,48.655 C4.644,73.021 24.469,92.845 48.837,92.845 C63.57,92.845 77.286,85.538 85.525,73.298 L88.844,75.53 C79.86,88.877 64.904,96.845 48.837,96.845" id="Fill-1646" fill="#5D9EE2"></path>
                        <path d="M87.16,54.83 C87.485,52.812 87.699,50.761 87.699,48.655 C87.699,27.193 70.298,9.796 48.837,9.796 C27.376,9.796 9.978,27.193 9.978,48.655 C9.978,70.113 27.376,87.511 48.837,87.511 C62.276,87.511 74.12,80.69 81.097,70.324" id="Fill-1647" fill="#D6E7F2"></path>
                        <path d="M81.262,62.225 C68.587,57.349 54.729,55.377 41.193,56.523 L40.855,52.539 C54.994,51.341 69.463,53.399 82.697,58.491 L81.262,62.225" id="Fill-1648" fill="#5D9EE2"></path>
                        <path d="M6.615,66.689 L4.742,63.154 C8.15,61.349 11.707,59.736 15.314,58.362 L16.738,62.1 C13.284,63.416 9.878,64.96 6.615,66.689" id="Fill-1649" fill="#5D9EE2"></path>
                        <path d="M64.622,92.499 L60.622,92.485 C60.666,79.282 58.021,66.448 52.764,54.337 L56.434,52.744 C61.912,65.364 64.668,78.74 64.622,92.499" id="Fill-1650" fill="#5D9EE2"></path>
                        <path d="M50.335,49.172 C43.136,34.985 32.394,22.737 19.268,13.752 L21.527,10.452 C35.205,19.815 46.4,32.578 53.901,47.362 L50.335,49.172" id="Fill-1651" fill="#5D9EE2"></path>
                        <path d="M51.954,24.504 C44.765,19.145 38.383,12.785 32.986,5.601 L36.184,3.199 C41.352,10.077 47.462,16.166 54.345,21.298 L51.954,24.504" id="Fill-1652" fill="#5D9EE2"></path>
                        <path d="M94.204,42.154 C87.204,41.095 80.298,39.232 73.677,36.619 L75.146,32.898 C81.486,35.401 88.1,37.185 94.802,38.199 L94.204,42.154" id="Fill-1653" fill="#5D9EE2"></path>
                        <path d="M75.337,30.201 C75.337,35.672 70.896,40.11 65.429,40.11 C59.956,40.11 55.521,35.672 55.521,30.201 C55.521,24.73 59.956,20.289 65.429,20.289 C70.896,20.289 75.337,24.73 75.337,30.201" id="Fill-1654" fill="#FCE302"></path>
                        <path d="M65.429,22.289 C61.068,22.289 57.521,25.838 57.521,30.201 C57.521,34.562 61.068,38.11 65.429,38.11 C69.789,38.11 73.337,34.562 73.337,30.201 C73.337,25.838 69.789,22.289 65.429,22.289 Z M65.429,42.11 C58.862,42.11 53.521,36.768 53.521,30.201 C53.521,23.632 58.862,18.289 65.429,18.289 C71.995,18.289 77.337,23.632 77.337,30.201 C77.337,36.768 71.995,42.11 65.429,42.11 Z" id="Fill-1655" fill="#5D9EE2"></path>
                        <path d="M100.821,65.241 C100.821,70.714 96.386,75.152 90.913,75.152 C85.44,75.152 81.005,70.714 81.005,65.241 C81.005,59.768 85.44,55.331 90.913,55.331 C96.386,55.331 100.821,59.768 100.821,65.241" id="Fill-1656" fill="#FCE302"></path>
                        <path d="M90.913,57.331 C86.553,57.331 83.005,60.88 83.005,65.241 C83.005,69.603 86.553,73.152 90.913,73.152 C95.273,73.152 98.821,69.603 98.821,65.241 C98.821,60.88 95.273,57.331 90.913,57.331 Z M90.913,77.152 C84.347,77.152 79.005,71.809 79.005,65.241 C79.005,58.674 84.347,53.331 90.913,53.331 C97.479,53.331 102.821,58.674 102.821,65.241 C102.821,71.809 97.479,77.152 90.913,77.152 Z" id="Fill-1657" fill="#5D9EE2"></path>
                        <path d="M36.579,58.34 C36.579,63.812 32.142,68.249 26.669,68.249 C21.198,68.249 16.761,63.812 16.761,58.34 C16.761,52.87 21.198,48.429 26.669,48.429 C32.142,48.429 36.579,52.87 36.579,58.34" id="Fill-1658" fill="#FCE302"></path>
                        <path d="M26.669,50.429 C22.309,50.429 18.761,53.978 18.761,58.34 C18.761,62.701 22.309,66.249 26.669,66.249 C31.03,66.249 34.579,62.701 34.579,58.34 C34.579,53.978 31.03,50.429 26.669,50.429 Z M26.669,70.249 C20.103,70.249 14.761,64.906 14.761,58.34 C14.761,51.772 20.103,46.429 26.669,46.429 C33.236,46.429 38.579,51.772 38.579,58.34 C38.579,64.906 33.236,70.249 26.669,70.249 Z" id="Fill-1659" fill="#5D9EE2"></path>
                    </g>
                </g>
            </g>
        </g>
    </g>
</svg>