<?xml version="1.0" encoding="UTF-8"?>
<svg width="82px" height="79px" viewBox="0 0 82 79" version="1.1" xmlns="http://www.w3.org/2000/svg" xmlns:xlink="http://www.w3.org/1999/xlink">
    <!-- Generator: sketchtool 50.2 (55047) - http://www.bohemiancoding.com/sketch -->
    <title>20F6A9B2-6FA9-4E1A-9074-DCD8C0777AB1</title>
    <desc>Created with sketchtool.</desc>
    <defs></defs>
    <g id="Page-1" stroke="none" stroke-width="1" fill="none" fill-rule="evenodd">
        <g id="01_LandingPage_Service" transform="translate(-336.000000, -592.000000)">
            <g id="Content" transform="translate(156.000000, 101.000000)">
                <g id="Content_Block_2_Optimization" transform="translate(0.000000, 491.000000)">
                    <g id="Icon_Analytics_Optim" transform="translate(180.000000, 0.000000)">
                        <polygon id="Fill-1411" fill="#A2CEEA" points="2 53 68 53 68 11 2 11"></polygon>
                        <path d="M3.20866805,51.7943581 L65.7913319,51.7943581 L65.7913319,13.2056419 L3.20866805,13.2056419 L3.20866805,51.7943581 Z M0,55 L69,55 L69,10 L0,10 L0,55 Z" id="Fill-1412" fill="#D6E7F2"></path>
                        <polygon id="Fill-1413" fill="#FCE302" points="7 48 63 48 63 16 7 16"></polygon>
                        <polygon id="Fill-1414" fill="#5D9EE2" points="2 11 68 11 68 2 2 2"></polygon>
                        <path d="M3.20866805,9.64516129 L65.7913319,9.64516129 L65.7913319,3.35483871 L3.20866805,3.35483871 L3.20866805,9.64516129 Z M0,13 L69,13 L69,0 L0,0 L0,13 Z" id="Fill-1415" fill="#D6E7F2"></path>
                        <path d="M6,7 L9,7" id="Fill-1416" fill="#FFFFFF"></path>
                        <polygon id="Fill-1417" fill="#FFFFFF" points="6 8 9 8 9 5 6 5"></polygon>
                        <path d="M11,7 L14,7" id="Fill-1418" fill="#FFFFFF"></path>
                        <polygon id="Fill-1419" fill="#FFFFFF" points="11 8 14 8 14 5 11 5"></polygon>
                        <path d="M16,7 L19,7" id="Fill-1420" fill="#FFFFFF"></path>
                        <polygon id="Fill-1421" fill="#FFFFFF" points="16 8 19 8 19 5 16 5"></polygon>
                        <path d="M80,46.0004107 L72.8894286,45.4071231 C72.3913899,42.7902004 71.4284076,40.3379452 70.0852368,38.1423777 L74.834766,32.529151 L69.1779509,26.8723359 L63.7326205,31.4806061 C61.5983998,30.0300786 59.1945762,28.9516675 56.6115556,28.3309354 L56.0005098,21 L48.0004107,21 L47.4079303,28.1105714 C44.7910076,28.6086101 42.3379452,29.5715924 40.1431849,30.9155703 L34.5299582,26.165234 L28.8723359,31.8212419 L33.4806061,37.2673795 C32.0308858,39.400793 30.9524747,41.8054238 30.3309354,44.3884444 L23.0008072,45.0002974 L23,52.9995893 L30.1113786,53.5920697 C30.6094173,56.2097996 31.5715924,58.6620548 32.9155703,60.8568151 L28.1660412,66.4700418 L33.8220491,72.1268569 L39.2681866,67.5193939 C41.400793,68.9699214 43.8054238,70.0483325 46.3900588,70.6690646 L47.0002974,77.9991928 L55.0012037,78 L55.5928769,70.8894286 C58.2097996,70.3913899 60.6620548,69.4284076 62.8568151,68.0844297 L68.470849,72.8339588 L74.1276641,67.1779509 L69.5202011,61.7318134 C70.9707286,59.5983998 72.0483325,57.193769 72.6690646,54.6107484 L80,53.9997026 L80,46.0004107 Z" id="Fill-1422" fill="#5D9EE2"></path>
                        <path d="M48.9969845,75.7826844 L54.0075052,75.7834886 L54.5760236,68.9564431 L55.7765865,68.7272666 C58.1600214,68.2745427 60.4131877,67.4036722 62.4733633,66.1419956 L63.465657,65.534879 L68.8155197,70.0621189 L72.3577029,66.5199357 L67.9349997,61.2914963 L68.6217249,60.2815118 C69.9815051,58.2808417 70.9585204,56.0719024 71.5254305,53.7150037 L71.7972258,52.585204 L78.7834886,52.0030155 L78.7834886,46.9932989 L71.9564431,46.4247805 L71.7280708,45.2234135 C71.2745427,42.8415868 70.4044763,40.5876164 69.1427997,38.5250285 L68.5364873,37.5335388 L73.0621189,32.1852845 L69.5199357,28.641493 L64.2923005,33.0658045 L63.2823159,32.3790793 C61.2816458,31.0184949 59.0727066,30.0414796 56.7158078,29.4745695 L55.5860082,29.2035784 L55.0038196,22.2165114 L49.9941031,22.2165114 L49.4255847,29.0435569 L48.2242177,29.2719292 C45.8407827,29.7262615 43.5868123,30.5955237 41.5266367,31.8572003 L40.5351471,32.4643168 L35.1852845,27.937077 L31.6422971,31.4800643 L36.0666086,36.7085037 L35.3790793,37.7184882 C34.0184949,39.7191583 33.0422837,41.9280976 32.4745695,44.2841922 L32.2035784,45.4139918 L25.2173156,45.9969845 L25.2165114,51.0067011 L32.0435569,51.5752195 L32.2727334,52.7757823 C32.7262615,55.1592173 33.5955237,57.4123836 34.8572003,59.4733633 L35.465121,60.4648529 L30.9378811,65.8147155 L34.4808685,69.3577029 L39.7093078,64.9341955 L40.7192924,65.6217249 C42.7191583,66.9815051 44.9280976,67.9585204 47.2841922,68.5246264 L48.4156001,68.7964216 L48.9969845,75.7826844 Z M56.9674998,79 L46.0369899,78.9991959 L45.4009247,71.3503317 C43.4814716,70.7858339 41.6544931,69.980902 39.9457214,68.9459894 L34.2983314,73.7249213 L26.572271,65.9964484 L31.528111,60.138377 C30.5720029,58.3853783 29.8507003,56.5238223 29.3746566,54.5810494 L22,53.9666957 L22.0008041,43.0369899 L29.6504724,42.3993165 C30.2141661,40.4806674 31.0199022,38.6544931 32.0540106,36.9457214 L27.2750787,31.2975273 L35.0043557,23.5698586 L40.861623,28.5273068 C42.6146217,27.5720029 44.4753736,26.8507003 46.4197547,26.3738524 L47.0333043,19 L57.9630101,19 L58.6006835,26.6504724 C60.5185284,27.2141661 62.3455069,28.019098 64.0542786,29.0532065 L69.7016686,24.2750787 L77.4301414,32.0035516 L72.4734973,37.861623 C73.4279971,39.6146217 74.1501039,41.4761777 74.6253434,43.4189506 L82,44.0333043 L82,54.9630101 L74.3503317,55.5998794 C73.7858339,57.5185284 72.9817061,59.3455069 71.9467935,61.0534745 L76.7257254,66.7008644 L68.9972526,74.4293373 L63.138377,69.471889 C61.3861824,70.4279971 59.5246264,71.1492997 57.5810494,71.6253434 L56.9674998,79 Z" id="Fill-1423" fill="#D6E7F2"></path>
                        <path d="M66,49.5 C66,57.5081001 59.7319588,64 52,64 C44.2680412,64 38,57.5081001 38,49.5 C38,41.4918999 44.2680412,35 52,35 C59.7319588,35 66,41.4918999 66,49.5" id="Fill-1424" fill="#D6E7F2"></path>
                        <path d="M61,50 C61,54.9716157 56.9707969,59 52,59 C47.0292031,59 43,54.9716157 43,50 C43,45.0292031 47.0292031,41 52,41 C56.9707969,41 61,45.0292031 61,50" id="Fill-1425" fill="#A2CEEA"></path>
                        <path d="M51.5,42.2327586 C47.4929957,42.2327586 44.2327586,45.4929957 44.2327586,49.5 C44.2327586,53.5078125 47.4929957,56.7672414 51.5,56.7672414 C55.5070043,56.7672414 58.7672414,53.5078125 58.7672414,49.5 C58.7672414,45.4929957 55.5070043,42.2327586 51.5,42.2327586 Z M51.5,60 C45.7101293,60 41,55.2906789 41,49.5 C41,43.7101293 45.7101293,39 51.5,39 C57.2898707,39 62,43.7101293 62,49.5 C62,55.2906789 57.2898707,60 51.5,60 Z" id="Fill-1426" fill="#5D9EE2"></path>
                    </g>
                </g>
            </g>
        </g>
    </g>
</svg>