<?xml version="1.0" encoding="UTF-8"?>
<svg width="79px" height="81px" viewBox="0 0 79 81" version="1.1" xmlns="http://www.w3.org/2000/svg" xmlns:xlink="http://www.w3.org/1999/xlink">
    <!-- Generator: sketchtool 50.2 (55047) - http://www.bohemiancoding.com/sketch -->
    <title>7DE06814-BAFB-4A72-A953-A19AAACB8707</title>
    <desc>Created with sketchtool.</desc>
    <defs></defs>
    <g id="Page-1" stroke="none" stroke-width="1" fill="none" fill-rule="evenodd">
        <g id="02_LandingPage_Agency" transform="translate(-333.000000, -336.000000)">
            <g id="Content" transform="translate(113.000000, 102.000000)">
                <g id="Content_Block_1_Strategy" transform="translate(8.000000, 234.000000)">
                    <g id="Icon_Strategy" transform="translate(212.000000, 0.000000)">
                        <polygon id="Fill-1606" fill="#5D9EE2" points="66 28 69 28 69 17 66 17"></polygon>
                        <polyline id="Fill-1607" fill="#5D9EE2" points="16.1494203 28 13 28 13 0 53 0 53 3.18380806 16.1494203 3.18380806 16.1494203 28"></polyline>
                        <polyline id="Fill-1608" fill="#FFFFFF" points="56 14 70 14 56 0 56 14"></polyline>
                        <polygon id="Fill-1609" fill="#5D9EE2" points="22 14 38 14 38 11 22 11"></polygon>
                        <polygon id="Fill-1610" fill="#5D9EE2" points="21 21 59 21 59 18 21 18"></polygon>
                        <polygon id="Fill-1611" fill="#5D9EE2" points="21 27 59 27 59 24 21 24"></polygon>
                        <polygon id="Fill-1612" fill="#5D9EE2" points="21 55 59 55 59 52 21 52"></polygon>
                        <polygon id="Fill-1613" fill="#5D9EE2" points="21 61 59 61 59 58 21 58"></polygon>
                        <polyline id="Fill-1614" fill="#5D9EE2" points="14.9991928 49 12.5590594 49 0 40.5012011 12.5598665 32.0016014 14.9983856 32 15 35.2028637 13.5567454 35.2028637 5.72862293 40.5012011 13.5559382 45.7971363 14.9991928 45.7971363 14.9991928 49"></polyline>
                        <polyline id="Fill-1615" fill="#FFFFFF" points="15 46.9991843 15 33.0016313 68 33 68 47 15 46.9991843"></polyline>
                        <path d="M70,32 L13,32.0016065 L13,48.9991967 L70,49 L70,32 Z M66.8139961,35.2130032 L66.8139961,45.7869968 L16.1860039,45.7861935 L16.1860039,35.2146097 L66.8139961,35.2130032 Z" id="Fill-1616" fill="#5D9EE2"></path>
                        <polygon id="Fill-1617" fill="#5D9EE2" points="17 41 71 41 71 38 17 38"></polygon>
                        <path d="M72,45.9984708 L76.0892989,46 C76.5948339,45.9984708 76.998524,45.3623103 77,44.5724621 L76.999262,34.4328902 C77,33.6392189 76.5940959,33 76.0892989,33 L72,33" id="Fill-1618" fill="#FFFFFF"></path>
                        <path d="M76.4225641,49 L72,48.9983811 L72,45.7605942 L75.8091168,45.7622131 L75.8083191,35.2377869 L72,35.2377869 L72,32 L76.4201709,32 C77.2266667,32 77.9661538,32.4273879 78.4495726,33.1720788 C78.8045584,33.7200743 79,34.4178174 78.9992023,35.1374155 L79,45.8698695 C78.9968091,47.6239406 77.8640456,48.9975717 76.4225641,49" id="Fill-1619" fill="#5D9EE2"></path>
                        <polyline id="Fill-1620" fill="#5D9EE2" points="61.0032656 81 45.6069973 72.3156992 13 72.3156992 13 52 16.1818689 52 16.1818689 69.2069465 46.4597382 69.2069465 57.8213967 75.6156402 57.8213967 69.2069465 66.8181311 69.2069465 66.8181311 52 70 52 70 72.3156992 61.0032656 72.3156992 61.0032656 81"></polyline>
                    </g>
                </g>
            </g>
        </g>
    </g>
</svg>