<?xml version="1.0" encoding="UTF-8"?>
<svg width="94px" height="72px" viewBox="0 0 94 72" version="1.1" xmlns="http://www.w3.org/2000/svg" xmlns:xlink="http://www.w3.org/1999/xlink">
    <!-- Generator: sketchtool 50.2 (55047) - http://www.bohemiancoding.com/sketch -->
    <title>2DD1CAAC-C292-4EA3-9460-4A58FEE5AF4A</title>
    <desc>Created with sketchtool.</desc>
    <defs></defs>
    <g id="Page-1" stroke="none" stroke-width="1" fill="none" fill-rule="evenodd">
        <g id="01_LandingPage_Service" transform="translate(-1010.000000, -585.000000)">
            <g id="Content" transform="translate(156.000000, 101.000000)">
                <g id="Content_Block_4_Tactics" transform="translate(725.000000, 484.000000)">
                    <g id="Icon_Analytics_Tactics" transform="translate(129.000000, 0.000000)">
                        <path d="M12,64 L12,19.4025423 C12,18.0772662 13.0739735,17 14.391415,17 L79.608585,17 C80.9294197,17 82,18.0772662 82,19.4025423 L82,64" id="Fill-1681" fill="#A2CEEA"></path>
                        <path d="M84,63 L80.6249018,63 L80.6249018,19.0476665 C80.6249018,18.668854 80.3152365,18.3597564 79.9338504,18.3597564 L15.0661496,18.3597564 C14.6847635,18.3597564 14.3750982,18.668854 14.3750982,19.0476665 L14.3750982,63 L11,63 L11,19.0476665 C11,16.8159483 12.8233968,15 15.0661496,15 L79.9338504,15 C82.1766032,15 84,16.8159483 84,19.0476665 L84,63" id="Fill-1682" fill="#D6E7F2"></path>
                        <polygon id="Fill-1683" fill="#FCE302" points="18 58 78 58 78 22 18 22"></polygon>
                        <path d="M2,64 L2,68.5268336 C2,68.5268336 5.14452308,71 7.45639752,71 L87.5419032,71 C89.8537776,71 93,68.5268336 93,68.5268336 L93,64 L2,64" id="Fill-1684" fill="#5D9EE2"></path>
                        <path d="M3.38421659,67.0837139 C4.50354623,67.8033147 6.10089646,68.6176222 7.12546803,68.6176222 L86.8728399,68.6176222 C87.921101,68.6176222 89.5539855,67.7601894 90.6157834,67.0820227 L90.6157834,65.3823778 L3.38421659,65.3823778 L3.38421659,67.0837139 Z M86.8728399,72 L7.12546803,72 C4.34194988,72 1.04656898,69.5993573 0.67938148,69.3262303 L0,68.8188737 L0,62 L94,62 L94,68.8188737 L93.3197725,69.3262303 C92.952585,69.5993573 89.656358,72 86.8728399,72 Z" id="Fill-1685" fill="#D6E7F2"></path>
                        <path d="M39.0643549,40 L55.9085807,40 C56.0261418,38.3933086 56.3847455,36.3019647 57.3869752,34.9572247 C63.6033369,26.881958 64,19.1889525 64,18.6454249 C64,9.44811946 56.6156389,2 47.5008458,2 C38.3843611,2 31,9.44811946 31,18.6454249 C31,19.1889525 31.3882054,26.8768384 37.6113332,34.9572247 C38.6118714,36.3019647 38.9569429,38.3933086 39.0643549,40" id="Fill-1686" fill="#5D9EE2"></path>
                        <path d="M40.1536566,37.6209952 L53.8287694,37.6209952 C54.1149751,35.8090038 54.6564229,34.3611002 55.4455809,33.3017822 C61.4174067,25.5402081 61.6517272,18.2373339 61.652564,18.1663748 C61.652564,10.0136808 55.0798735,3.37900484 47.0008369,3.37900484 C38.9209633,3.37900484 32.347436,10.0136808 32.347436,18.168909 C32.3482728,18.2381786 32.5792459,25.5410528 38.536845,33.2815082 C39.3368822,34.3560317 39.8758194,35.8081591 40.1536566,37.6209952 Z M56.8757729,41 L37.0882421,41 L36.9836348,39.424539 C36.8606165,37.5787576 36.4672928,36.1257855 35.8764703,35.3325641 C29.1874564,26.6417637 29,18.2516947 29,18.168909 C29,8.15100443 37.0756892,0 47.0008369,0 C56.9251476,0 65,8.15100443 65,18.168909 C65,18.2516947 64.8117067,26.6358504 58.1059556,35.3536829 C57.5260124,36.1316988 57.1243201,37.5880499 56.9895858,39.434676 L56.8757729,41 Z" id="Fill-1687" fill="#FFFFFF"></path>
                        <polyline id="Fill-1688" fill="#FFFFFF" points="42.5901263 40 40 21.4794053 43.4107348 21 46 39.5197309 42.5901263 40"></polyline>
                        <polyline id="Fill-1689" fill="#FFFFFF" points="52.4102454 40 49 39.5197309 51.5897546 21 55 21.4794053 52.4102454 40"></polyline>
                        <polyline id="Fill-1690" fill="#FFFFFF" points="52.0320707 25 49.8218565 25 48.960305 24.3044515 48.1029892 24.9984102 45.8885393 24.9984102 45.0320707 24.3052464 44.1756021 24.9984102 41.9611521 24.9984102 40 23.4085851 42.2161443 21.0031797 43.0692243 21.6939587 43.9248457 21.0015898 46.1384485 21.0015898 46.9957643 21.6947536 47.85308 21.0015898 50.0649885 21 50.9273871 21.6963434 51.7889386 21 54 23.4101749 52.0320707 25"></polyline>
                        <polygon id="Fill-1691" fill="#FFFFFF" points="38 41 57 41 57 38 38 38"></polygon>
                        <polygon id="Fill-1692" fill="#FFFFFF" points="38 46 57 46 57 43 38 43"></polygon>
                        <polygon id="Fill-1693" fill="#FFFFFF" points="41 51 53 51 53 48 41 48"></polygon>
                        <polygon id="Fill-1694" fill="#FFFFFF" points="41 44 44 44 44 40 41 40"></polygon>
                    </g>
                </g>
            </g>
        </g>
    </g>
</svg>