<?xml version="1.0" encoding="UTF-8"?>
<svg width="168px" height="64px" viewBox="0 0 168 64" version="1.1" xmlns="http://www.w3.org/2000/svg" xmlns:xlink="http://www.w3.org/1999/xlink">
    <!-- Generator: Sketch 52.2 (67145) - http://www.bohemiancoding.com/sketch -->
    <title>Logo - onwhite</title>
    <desc>Created with Sketch.</desc>
    <defs>
        <path d="M2.48529912,14.12 L5.888,14.12 L5.888,31.272 C5.888,39.336 8.32,41.384 16.128,41.384 C18.176,41.384 19.136,41.32 21.632,41.128 L21.632,34.216 C20.544,34.344 19.84,34.344 18.88,34.344 C14.976,34.344 14.912,32.872 14.912,29.672 L14.912,14.12 L21.632,14.12 L21.632,7.976 L14.912,7.976 L14.912,2.11887005 C17.9974683,0.756539544 21.4103845,3.55271368e-14 25,3.55271368e-14 C38.8071187,3.55271368e-14 50,11.1928813 50,25 C50,38.8071187 38.8071187,50 25,50 C11.1928813,50 0,38.8071187 0,25 C0,21.1003694 0.892858661,17.4092771 2.48529912,14.12 Z" id="path-1"></path>
    </defs>
    <g id="Page-1" stroke="none" stroke-width="1" fill="none" fill-rule="evenodd">
        <g id="01_LandingPage_Service" transform="translate(-49.000000, -11.000000)">
            <g id="Header">
                <g id="Logo---onwhite" transform="translate(49.000000, 6.000000)">
                    <g id="dots" transform="translate(129.000000, 25.000000)" fill="#5D9EE2">
                        <circle id="Oval" cx="34" cy="5" r="5"></circle>
                        <circle id="Oval" cx="5" cy="5" r="5"></circle>
                        <circle id="Oval" cx="20" cy="5" r="5"></circle>
                    </g>
                    <g id="t-sign" transform="translate(74.000000, 5.000000)">
                        <g id="t">
                            <mask id="mask-2" fill="white">
                                <use xlink:href="#path-1"></use>
                            </mask>
                            <use id="Combined-Shape" fill="#5D9EE2" xlink:href="#path-1"></use>
                        </g>
                    </g>
                    <g id="ac" fill="#5D9EE2">
                        <path d="M33.176,46 L23.96,46 C23.512,44.784 23.448,44.272 23.32,42.8 C20.504,45.616 16.6,46.96 12.632,46.96 C5.336,46.96 0.856,43.184 0.856,36.976 C0.856,28.336 8.728,27.312 15.256,26.48 C21.144,25.712 23.32,25.2 23.32,22.512 C23.32,19.504 21.4,18.096 17.368,18.096 C13.208,18.096 11.48,19.376 10.84,23.152 L2.328,23.152 C2.84,15.792 8.088,12.016 17.624,12.016 C24.28,12.016 32.024,13.552 32.024,22.768 L32.024,37.04 C32.024,40.048 31.96,43.184 33.176,46 Z M23.256,29.936 C21.144,31.152 19.16,31.28 16.856,31.664 C13.72,32.176 10.2,32.56 10.2,36.592 C10.2,39.344 12.056,41.008 15.192,41.008 C19.928,41.008 23.256,38.384 23.256,33.648 L23.256,29.936 Z" id="a"></path>
                        <path d="M69.944,33.264 C68.792,41.84 62.904,46.832 54.136,46.832 C43.96,46.832 37.304,40.048 37.304,29.744 C37.304,19.056 44.024,12.016 54.264,12.016 C63.096,12.016 68.984,16.816 69.752,24.496 L60.856,24.496 C60.216,20.848 57.848,18.8 54.328,18.8 C49.4,18.8 46.456,22.768 46.456,29.552 C46.456,36.144 49.272,39.92 54.136,39.92 C58.04,39.92 60.472,37.616 61.176,33.264 L69.944,33.264 Z" id="c"></path>
                    </g>
                    <g id="subline" transform="translate(2.000000, 57.000000)" fill="#5D9EE2">
                        <path d="M8.336,9.912 L8.336,10.968 C8.048,11.08 7.712,11.128 7.408,11.128 C6.64,11.128 6.224,10.696 6.208,9.912 C5.392,10.824 4.496,11.224 3.216,11.224 C1.584,11.224 0.576,10.328 0.576,8.888 C0.576,7.416 1.552,6.552 3.504,6.312 C5.472,6.072 6.144,6.12 6.144,5 C6.144,4.12 5.488,3.64 4.272,3.64 C3.008,3.64 2.352,4.104 2.224,5.32 L0.896,5.32 C0.944,3.56 2.224,2.52 4.352,2.52 C5.456,2.52 6.4,2.808 6.944,3.32 C7.52,3.88 7.504,4.728 7.504,5.464 C7.504,6.696 7.44,7.912 7.44,9.144 C7.44,9.752 7.584,9.96 8,9.96 C8.128,9.96 8.192,9.944 8.336,9.912 Z M6.144,6.712 C5.632,7.096 4.928,7.128 4.32,7.208 C3.328,7.336 1.984,7.448 1.984,8.776 C1.984,9.624 2.608,10.152 3.632,10.152 C4.912,10.152 6.144,9.272 6.144,8.216 L6.144,6.712 Z M16.72,7.992 C16.48,9.96 15.168,11.24 13.12,11.24 C10.56,11.24 9.2,9.496 9.2,6.984 C9.2,4.232 10.736,2.504 13.168,2.504 C15.184,2.504 16.448,3.56 16.672,5.432 L15.264,5.432 C15.024,4.264 14.304,3.64 13.184,3.64 C11.616,3.64 10.624,4.888 10.624,6.872 C10.624,8.888 11.552,10.104 13.088,10.104 C14.32,10.104 15.136,9.352 15.344,7.992 L16.72,7.992 Z M21.744,2.744 L21.744,3.864 L20.096,3.864 L20.096,8.68 C20.096,9.432 20.048,9.896 21.008,9.896 C21.28,9.896 21.456,9.88 21.744,9.848 L21.744,11.016 C21.312,11.064 21.136,11.08 20.704,11.08 C18.64,11.08 18.736,10.056 18.736,8.248 L18.736,3.864 L17.344,3.864 L17.344,2.744 L18.736,2.744 L18.736,0.296 L20.096,0.296 L20.096,2.744 L21.744,2.744 Z M24.688,-0.392 L24.688,1.272 L23.312,1.272 L23.312,-0.392 L24.688,-0.392 Z M24.688,2.744 L24.688,11 L23.312,11 L23.312,2.744 L24.688,2.744 Z M26,2.744 L27.52,2.744 L29.856,9.672 L32.128,2.744 L33.552,2.744 L30.528,11 L29.072,11 L26,2.744 Z M41.856,8.392 C41.44,10.296 40.208,11.272 38.256,11.272 C35.824,11.272 34.368,9.672 34.368,6.984 C34.368,4.312 35.92,2.504 38.208,2.504 C40.928,2.504 41.952,4.664 41.952,7.048 L41.952,7.24 L35.744,7.24 L35.728,7.336 C35.728,9.096 36.704,10.152 38.304,10.152 C39.488,10.152 40.144,9.64 40.528,8.392 L41.856,8.392 Z M40.544,6.136 C40.416,4.568 39.536,3.624 38.176,3.624 C36.848,3.624 35.92,4.584 35.744,6.136 L40.544,6.136 Z M51.376,2.744 L51.376,3.864 L49.728,3.864 L49.728,8.68 C49.728,9.432 49.68,9.896 50.64,9.896 C50.912,9.896 51.088,9.88 51.376,9.848 L51.376,11.016 C50.944,11.064 50.768,11.08 50.336,11.08 C48.272,11.08 48.368,10.056 48.368,8.248 L48.368,3.864 L46.976,3.864 L46.976,2.744 L48.368,2.744 L48.368,0.296 L49.728,0.296 L49.728,2.744 L51.376,2.744 Z M57.184,2.552 L57.184,3.96 C57.04,3.944 56.976,3.944 56.832,3.944 C54.592,3.944 54.192,5.656 54.192,7.512 L54.192,11 L52.832,11 L52.832,2.744 L54.128,2.744 L54.128,4.52 C54.704,3.128 55.712,2.552 57.184,2.552 Z M65.52,9.912 L65.52,10.968 C65.232,11.08 64.896,11.128 64.592,11.128 C63.824,11.128 63.408,10.696 63.392,9.912 C62.576,10.824 61.68,11.224 60.4,11.224 C58.768,11.224 57.76,10.328 57.76,8.888 C57.76,7.416 58.736,6.552 60.688,6.312 C62.656,6.072 63.328,6.12 63.328,5 C63.328,4.12 62.672,3.64 61.456,3.64 C60.192,3.64 59.536,4.104 59.408,5.32 L58.08,5.32 C58.128,3.56 59.408,2.52 61.536,2.52 C62.64,2.52 63.584,2.808 64.128,3.32 C64.704,3.88 64.688,4.728 64.688,5.464 C64.688,6.696 64.624,7.912 64.624,9.144 C64.624,9.752 64.768,9.96 65.184,9.96 C65.312,9.96 65.376,9.944 65.52,9.912 Z M63.328,6.712 C62.816,7.096 62.112,7.128 61.504,7.208 C60.512,7.336 59.168,7.448 59.168,8.776 C59.168,9.624 59.792,10.152 60.816,10.152 C62.096,10.152 63.328,9.272 63.328,8.216 L63.328,6.712 Z M70.528,-0.424 L70.528,0.76 C70.352,0.728 70.048,0.696 69.776,0.696 C68.912,0.696 68.736,0.888 68.736,1.8 L68.736,2.744 L70.32,2.744 L70.32,3.864 L68.736,3.864 L68.736,11 L67.36,11 L67.36,3.864 L65.968,3.864 L65.968,2.744 L67.36,2.744 L67.36,1.64 C67.36,0.104 68.192,-0.488 69.648,-0.488 C69.984,-0.488 70.128,-0.472 70.528,-0.424 Z M75.264,-0.424 L75.264,0.76 C75.088,0.728 74.784,0.696 74.512,0.696 C73.648,0.696 73.472,0.888 73.472,1.8 L73.472,2.744 L75.056,2.744 L75.056,3.864 L73.472,3.864 L73.472,11 L72.096,11 L72.096,3.864 L70.704,3.864 L70.704,2.744 L72.096,2.744 L72.096,1.64 C72.096,0.104 72.928,-0.488 74.384,-0.488 C74.72,-0.488 74.864,-0.472 75.264,-0.424 Z M77.712,-0.392 L77.712,1.272 L76.336,1.272 L76.336,-0.392 L77.712,-0.392 Z M77.712,2.744 L77.712,11 L76.336,11 L76.336,2.744 L77.712,2.744 Z M86.928,7.992 C86.688,9.96 85.376,11.24 83.328,11.24 C80.768,11.24 79.408,9.496 79.408,6.984 C79.408,4.232 80.944,2.504 83.376,2.504 C85.392,2.504 86.656,3.56 86.88,5.432 L85.472,5.432 C85.232,4.264 84.512,3.64 83.392,3.64 C81.824,3.64 80.832,4.888 80.832,6.872 C80.832,8.888 81.76,10.104 83.296,10.104 C84.528,10.104 85.344,9.352 85.552,7.992 L86.928,7.992 Z M96.4,2.744 L96.4,3.864 L94.752,3.864 L94.752,8.68 C94.752,9.432 94.704,9.896 95.664,9.896 C95.936,9.896 96.112,9.88 96.4,9.848 L96.4,11.016 C95.968,11.064 95.792,11.08 95.36,11.08 C93.296,11.08 93.392,10.056 93.392,8.248 L93.392,3.864 L92,3.864 L92,2.744 L93.392,2.744 L93.392,0.296 L94.752,0.296 L94.752,2.744 L96.4,2.744 Z M101.52,2.504 C104.016,2.504 105.472,4.088 105.472,6.824 C105.472,9.624 104.016,11.256 101.504,11.256 C98.976,11.256 97.472,9.624 97.472,6.904 C97.472,4.184 99.024,2.504 101.52,2.504 Z M101.488,3.64 C99.888,3.64 98.88,4.904 98.88,6.872 C98.88,8.904 99.856,10.104 101.52,10.104 C103.12,10.104 104.08,8.888 104.08,6.856 C104.08,4.888 103.088,3.64 101.488,3.64 Z M110.704,2.504 C113.2,2.504 114.656,4.088 114.656,6.824 C114.656,9.624 113.2,11.256 110.688,11.256 C108.16,11.256 106.656,9.624 106.656,6.904 C106.656,4.184 108.208,2.504 110.704,2.504 Z M110.672,3.64 C109.072,3.64 108.064,4.904 108.064,6.872 C108.064,8.904 109.04,10.104 110.704,10.104 C112.304,10.104 113.264,8.888 113.264,6.856 C113.264,4.888 112.272,3.64 110.672,3.64 Z M117.712,-0.392 L117.712,11 L116.336,11 L116.336,-0.392 L117.712,-0.392 Z" id="active-traffic-tool"></path>
                    </g>
                </g>
            </g>
        </g>
    </g>
</svg>